<?xml version="1.0" encoding="utf-8"?>
<!-- Generator: Adobe Illustrator 16.0.4, SVG Export Plug-In . SVG Version: 6.00 Build 0)  -->
<!DOCTYPE svg PUBLIC "-//W3C//DTD SVG 1.1//EN" "http://www.w3.org/Graphics/SVG/1.1/DTD/svg11.dtd">
<svg version="1.1" id="レイヤー_1" xmlns="http://www.w3.org/2000/svg" xmlns:xlink="http://www.w3.org/1999/xlink" x="0px"
	 y="0px" width="396.851px" height="510.236px" viewBox="0 0 396.851 510.236" enable-background="new 0 0 396.851 510.236"
	 xml:space="preserve">
<g>
	<path d="M355.897,90.376c-15.107-19.187-51.583-29.598-81.327-30.412c1.797-5.909,1.648-13.424-3.956-21.092
		c-4.403-6.024-13.166-9.079-26.043-9.079c-26.02,0-67.108,12.966-92.28,31.504c-0.306-6.486-1.854-13.919-6.452-19.609
		c-3.247-4.019-9.512-8.835-20.685-8.468c-13.069,0.422-26.256,9.053-38.133,24.962c-23.385,31.319-39.872,90.411-28.43,145.983
		c-0.752-0.053-1.529-0.083-2.324-0.083c-6.76,0-12.407,2.228-16.33,6.442c-7.468,8.022-8.004,20.654-1.511,35.57
		c16.532,37.977,80.419,92.918,152.686,92.918c11.826,0,23.482-1.497,34.734-4.456c2.253,6.133,7.709,12.118,17.896,12.739
		c0.688,0.042,1.38,0.062,2.072,0.062c0.001,0,0,0,0.001,0c24.564,0,47.782-25.204,57.154-48.918
		c8.174-20.684,5.981-38.991-6.016-50.228c-6.363-5.958-13.817-8.855-22.791-8.855c-6.707,0-13.601,1.544-20.899,3.18
		c-8.32,1.864-16.924,3.792-26.432,3.792c-2.25,0-4.495-0.112-6.672-0.333c-35.477-3.603-46.156-22.217-48.867-37.198
		c-3.607-19.927,8.688-33.134,15.692-37.333c6.494-3.893,13.745-5.951,20.971-5.951c5.443,0,10.771,1.169,15.836,3.473
		c2.83,1.288,6.418,5.678,9.889,9.923c6.607,8.084,14.83,18.145,26.706,18.145c1.43,0,2.886-0.15,4.327-0.447
		c6.274-1.291,11.146-4.578,14.088-9.506c1.209-2.025,2.014-4.173,2.525-6.318c9.808,10.092,25.083,22.667,40.315,22.667
		c5.995,0,11.504-1.879,16.375-5.585c20.598-15.671,9.397-45.719,2.549-59.697c7.667-2.028,18.068-7.431,21.532-21.784
		C364.289,107.305,362.146,98.312,355.897,90.376z M245.814,336.02c-0.461,0-0.923-0.014-1.383-0.042
		c-7.689-0.469-8.513-6.109-8.51-8.45c0.045-1.829-0.796-3.568-2.258-4.669c-0.995-0.75-2.195-1.141-3.41-1.141
		c-0.57,0-1.144,0.086-1.7,0.261c-12.019,3.779-24.616,5.695-37.441,5.695c-29.769,0-61.845-10.594-90.32-29.831
		c-24.006-16.218-43.919-37.781-51.97-56.274c-2.653-6.094-6.257-17.228-0.587-23.319c1.748-1.877,4.449-2.829,8.031-2.829
		c4.174,0,7.861,1.307,7.878,1.313c1.979,0.729,4.204,0.296,5.769-1.123c1.562-1.419,2.208-3.59,1.674-5.633
		C57.32,155.445,73.123,95.749,96.106,64.966c9.603-12.861,20.048-20.111,29.414-20.413c5.287-0.178,9.031,1.217,11.488,4.246
		c5.379,6.633,4.051,19.971,3.087,24.541c-0.532,2.479,0.647,5.01,2.888,6.198c2.24,1.188,4.997,0.743,6.75-1.088
		c20.121-21.016,67.503-37.317,94.839-37.317c8.547,0,14.86,1.657,16.889,4.432c6.09,8.331,0.544,14.983-0.593,16.193
		c-1.63,1.667-2.072,4.161-1.117,6.287c0.955,2.125,3.099,3.443,5.441,3.339c1.832-0.087,3.728-0.132,5.635-0.132
		c31.687,0,64.43,11.238,76.164,26.14c4.135,5.252,5.472,10.595,4.087,16.333c-3.29,13.628-16.495,14.319-19.168,14.319
		c-0.701-0.031-1.378,0.081-2.013,0.295c-28.81,0.017-58.473-36.407-90.33-20.196c0,0,8.163-18.167-8.229-24.006
		c-17.656-6.29-64,25-70,43.75c0,0-7.297-15-19.297-11c-13.801,4.6-14.851,26.962-14.851,26.962s-22.35-10.828-34.603,3.205
		c-20.667,23.667-1,79.667,47.346,114.865c0,0-11.095,4.571-11.346,16.136c-0.25,11.5,19.86,33.482,82.5,29.833
		c19.099-1.112,41.048-14.449,48.25-22c13.325-13.97,32.008-15.006,32.199,10.534C282.022,318.447,261.898,336.021,245.814,336.02z"
		/>
	<g>
		<path d="M74.925,422.667c-3.354,0-6.343-1.217-8.645-3.518c-3.208-3.209-3.208-6.801-3.207-12.754v-0.504
			c-0.001-5.955-0.001-9.549,3.207-12.758c2.301-2.301,5.29-3.518,8.645-3.518c6.245,0,10.64,3.785,11.755,10.123
			c0.03,0.168-0.016,0.336-0.124,0.463c-0.108,0.131-0.266,0.203-0.434,0.203h-4.85c-0.268,0-0.489-0.176-0.552-0.438
			c-0.752-3.186-2.811-4.939-5.796-4.939c-1.67,0-3.205,0.623-4.212,1.711c-1.42,1.541-1.745,3.299-1.745,9.402
			c0,6.105,0.326,7.861,1.744,9.402c1.009,1.088,2.544,1.713,4.213,1.713c3.014,0,5.088-1.756,5.841-4.941
			c0.062-0.262,0.283-0.438,0.552-0.438h4.805c0.166,0,0.324,0.074,0.433,0.201c0.108,0.129,0.154,0.295,0.126,0.461
			C85.625,418.786,81.122,422.667,74.925,422.667z"/>
		<path d="M113.281,422.403c-0.312,0-0.566-0.256-0.566-0.568v-12.008c0-0.627-0.508-1.135-1.134-1.135h-9.339
			c-0.626,0-1.134,0.508-1.134,1.135v12.008c0,0.312-0.254,0.568-0.567,0.568H95.78c-0.312,0-0.566-0.256-0.566-0.568v-31.387
			c0-0.312,0.254-0.566,0.566-0.566h4.762c0.312,0,0.567,0.254,0.567,0.566v11.701c0,0.625,0.508,1.133,1.134,1.133h9.339
			c0.626,0,1.134-0.508,1.134-1.133v-11.701c0-0.312,0.254-0.566,0.566-0.566h4.761c0.312,0,0.567,0.254,0.567,0.566v31.387
			c0,0.312-0.255,0.568-0.567,0.568H113.281z"/>
		<path d="M129.552,422.403c-0.312,0-0.566-0.256-0.566-0.568v-31.387c0-0.312,0.254-0.566,0.566-0.566h4.762
			c0.312,0,0.566,0.254,0.566,0.566v31.387c0,0.312-0.254,0.568-0.566,0.568H129.552z"/>
		<path d="M165.084,422.403c-0.191,0-0.368-0.096-0.474-0.256l-11.381-17.33c-0.213-0.326-0.573-0.512-0.947-0.512
			c-0.108,0-0.218,0.016-0.325,0.047c-0.479,0.145-0.809,0.586-0.809,1.086v16.396c0,0.312-0.255,0.568-0.567,0.568h-4.761
			c-0.312,0-0.567-0.256-0.567-0.568v-31.387c0-0.312,0.255-0.566,0.567-0.566h4.364c0.191,0,0.368,0.096,0.474,0.256l11.382,17.297
			c0.214,0.324,0.572,0.51,0.947,0.51c0.108,0,0.218-0.016,0.325-0.047c0.479-0.145,0.809-0.586,0.809-1.086v-16.363
			c0-0.312,0.254-0.566,0.566-0.566h4.761c0.312,0,0.567,0.254,0.567,0.566v31.387c0,0.312-0.255,0.568-0.567,0.568H165.084z"/>
		<path d="M191.097,422.667c-3.354,0-6.343-1.217-8.645-3.518c-3.208-3.209-3.208-6.801-3.207-12.754v-0.504
			c-0.001-5.955-0.001-9.549,3.207-12.758c2.301-2.301,5.29-3.518,8.645-3.518c6.245,0,10.64,3.785,11.755,10.123
			c0.03,0.168-0.016,0.336-0.124,0.463c-0.108,0.131-0.266,0.203-0.434,0.203h-4.85c-0.268,0-0.489-0.176-0.552-0.438
			c-0.752-3.186-2.811-4.939-5.796-4.939c-1.67,0-3.205,0.623-4.212,1.711c-1.42,1.541-1.745,3.299-1.745,9.402
			c0,6.105,0.326,7.861,1.744,9.402c1.009,1.088,2.544,1.713,4.213,1.713c3.014,0,5.088-1.756,5.841-4.941
			c0.062-0.262,0.283-0.438,0.552-0.438h4.805c0.166,0,0.324,0.074,0.433,0.201c0.108,0.129,0.154,0.295,0.126,0.461
			C201.797,418.786,197.293,422.667,191.097,422.667z"/>
		<path d="M229.452,422.403c-0.312,0-0.566-0.256-0.566-0.568v-12.008c0-0.627-0.508-1.135-1.134-1.135h-9.339
			c-0.626,0-1.134,0.508-1.134,1.135v12.008c0,0.312-0.255,0.568-0.567,0.568h-4.761c-0.312,0-0.566-0.256-0.566-0.568v-31.387
			c0-0.312,0.254-0.566,0.566-0.566h4.761c0.312,0,0.567,0.254,0.567,0.566v11.701c0,0.625,0.508,1.133,1.134,1.133h9.339
			c0.626,0,1.134-0.508,1.134-1.133v-11.701c0-0.312,0.254-0.566,0.566-0.566h4.761c0.312,0,0.567,0.254,0.567,0.566v31.387
			c0,0.312-0.255,0.568-0.567,0.568H229.452z"/>
		<path d="M245.723,422.403c-0.312,0-0.566-0.256-0.566-0.568v-31.387c0-0.312,0.254-0.566,0.566-0.566h4.761
			c0.312,0,0.567,0.254,0.567,0.566v31.387c0,0.312-0.255,0.568-0.567,0.568H245.723z"/>
		<path d="M261.991,422.403c-0.312,0-0.566-0.256-0.566-0.568v-31.387c0-0.312,0.254-0.566,0.566-0.566h4.761
			c0.312,0,0.567,0.254,0.567,0.566v25.41c0,0.625,0.508,1.133,1.134,1.133h13.419c0.312,0,0.567,0.256,0.567,0.568v4.275
			c0,0.312-0.255,0.568-0.567,0.568H261.991z"/>
		<path d="M290.604,422.403c-0.312,0-0.566-0.256-0.566-0.568v-31.387c0-0.312,0.254-0.566,0.566-0.566h4.761
			c0.312,0,0.568,0.254,0.568,0.566v25.41c0,0.625,0.508,1.133,1.134,1.133h13.419c0.312,0,0.567,0.256,0.567,0.568v4.275
			c0,0.312-0.255,0.568-0.567,0.568H290.604z"/>
		<path d="M337.249,422.403c-0.242,0-0.458-0.154-0.535-0.385l-1.767-5.152c-0.157-0.459-0.589-0.768-1.073-0.768h-9.958
			c-0.484,0-0.915,0.309-1.072,0.768l-1.767,5.152c-0.078,0.23-0.293,0.385-0.536,0.385h-5.069c-0.185,0-0.358-0.092-0.464-0.242
			c-0.107-0.154-0.132-0.348-0.068-0.521l11.506-31.387c0.081-0.219,0.3-0.371,0.532-0.371h3.835c0.233,0,0.452,0.152,0.533,0.371
			l11.505,31.387c0.064,0.174,0.039,0.369-0.067,0.52c-0.106,0.154-0.279,0.244-0.465,0.244H337.249z M328.983,401.606
			c-0.481,0-0.91,0.305-1.07,0.758l-2.471,7.035c-0.121,0.346-0.067,0.73,0.145,1.031c0.213,0.301,0.558,0.479,0.926,0.479h4.874
			c0.366,0,0.71-0.178,0.923-0.475c0.213-0.299,0.269-0.68,0.15-1.025l-2.404-7.035c-0.156-0.457-0.585-0.766-1.067-0.768
			C328.986,401.606,328.984,401.606,328.983,401.606z"/>
		<path d="M74.749,480.443c-5.09,0-8.533-1.289-11.513-4.312c-0.219-0.223-0.217-0.582,0.006-0.801l3.175-3.131
			c0.108-0.107,0.245-0.164,0.397-0.164c0.153,0,0.291,0.059,0.4,0.166c2.009,2.01,4.218,2.832,7.622,2.832
			c5.337,0,5.913-2.963,5.913-4.238c0-1.246-0.365-2.23-1.057-2.85c-0.708-0.668-1.386-0.924-3.129-1.174l-3.7-0.527
			c-2.624-0.363-4.788-1.283-6.263-2.662c-1.661-1.567-2.471-3.665-2.471-6.409c0-5.85,4.444-9.781,11.059-9.781
			c4.307,0,7.336,1.113,10.13,3.725c0.11,0.104,0.178,0.254,0.18,0.406c0.002,0.15-0.062,0.305-0.169,0.41l-3.042,2.998
			c-0.108,0.109-0.246,0.164-0.397,0.164c-0.148,0-0.283-0.055-0.392-0.156c-1.643-1.568-3.63-2.268-6.441-2.268
			c-3.186,0-5.164,1.656-5.164,4.326c0,1.055,0.336,1.891,0.998,2.484c0.717,0.635,1.894,1.113,3.235,1.318l3.572,0.529
			c2.909,0.441,4.692,1.156,6.15,2.47c1.805,1.574,2.751,3.943,2.751,6.863C86.6,476.513,81.837,480.443,74.749,480.443z"/>
		<path d="M112.623,480.179c-0.312,0-0.566-0.256-0.566-0.568v-12.508c0-0.18-0.042-0.355-0.123-0.514l-9.205-18.108
			c-0.092-0.18-0.083-0.383,0.022-0.555c0.099-0.162,0.289-0.27,0.482-0.27h5.202c0.215,0,0.42,0.129,0.512,0.322l5.032,10.572
			c0.188,0.395,0.587,0.646,1.024,0.646s0.836-0.252,1.023-0.646l5.033-10.572c0.092-0.193,0.297-0.322,0.512-0.322h5.202
			c0.192,0,0.382,0.105,0.482,0.27c0.105,0.172,0.114,0.375,0.022,0.555l-9.205,18.108c-0.081,0.158-0.123,0.334-0.123,0.514v12.508
			c0,0.312-0.254,0.568-0.566,0.568H112.623z"/>
		<path d="M154.859,480.443c-5.09,0-8.533-1.289-11.513-4.312c-0.219-0.223-0.217-0.582,0.006-0.801l3.175-3.131
			c0.108-0.107,0.245-0.164,0.397-0.164c0.153,0,0.291,0.059,0.4,0.166c2.009,2.01,4.218,2.832,7.622,2.832
			c5.337,0,5.913-2.963,5.913-4.238c0-1.246-0.365-2.23-1.057-2.85c-0.708-0.668-1.386-0.924-3.129-1.174l-3.7-0.527
			c-2.624-0.363-4.788-1.283-6.263-2.662c-1.661-1.567-2.471-3.665-2.471-6.409c0-5.85,4.444-9.781,11.059-9.781
			c4.307,0,7.336,1.113,10.13,3.725c0.11,0.104,0.178,0.254,0.18,0.406c0.002,0.15-0.062,0.305-0.169,0.41l-3.042,2.998
			c-0.108,0.109-0.246,0.164-0.397,0.164c-0.148,0-0.283-0.055-0.392-0.156c-1.642-1.568-3.629-2.268-6.441-2.268
			c-3.186,0-5.164,1.656-5.164,4.326c0,1.055,0.336,1.891,0.998,2.484c0.717,0.635,1.894,1.113,3.235,1.318l3.572,0.529
			c2.909,0.441,4.692,1.156,6.15,2.47c1.805,1.574,2.751,3.943,2.751,6.863C166.711,476.513,161.948,480.443,154.859,480.443z"/>
		<path d="M193.833,480.179c-0.312,0-0.566-0.256-0.566-0.568v-25.409c0-0.627-0.508-1.135-1.134-1.135h-6.94
			c-0.312,0-0.566-0.254-0.566-0.566v-4.277c0-0.312,0.254-0.566,0.566-0.566h22.042c0.312,0,0.566,0.254,0.566,0.566v4.277
			c0,0.312-0.254,0.566-0.566,0.566h-6.94c-0.626,0-1.134,0.508-1.134,1.135v25.409c0,0.312-0.254,0.568-0.566,0.568H193.833z"/>
		<path d="M228.091,480.179c-0.312,0-0.567-0.256-0.567-0.568v-31.388c0-0.312,0.255-0.566,0.567-0.566h20.058
			c0.312,0,0.566,0.254,0.566,0.566v4.277c0,0.312-0.254,0.566-0.566,0.566h-13.597c-0.626,0-1.134,0.508-1.134,1.135v5.766
			c0,0.627,0.508,1.135,1.134,1.135H245.9c0.312,0,0.566,0.254,0.566,0.566v4.233c0,0.312-0.254,0.566-0.566,0.566h-11.349
			c-0.626,0-1.134,0.508-1.134,1.135v6.031c0,0.625,0.508,1.133,1.134,1.133h13.597c0.312,0,0.566,0.256,0.566,0.568v4.275
			c0,0.312-0.254,0.568-0.566,0.568H228.091z"/>
		<path d="M293.985,480.179c-0.312,0-0.567-0.256-0.567-0.568v-13.404c0-0.529-0.367-0.99-0.886-1.105
			c-0.082-0.02-0.166-0.027-0.248-0.027c-0.431,0-0.835,0.246-1.024,0.648l-3.991,8.445c-0.093,0.193-0.299,0.324-0.513,0.324
			h-3.526c-0.212,0-0.418-0.129-0.511-0.32l-4.175-8.621c-0.192-0.398-0.593-0.641-1.02-0.641c-0.084,0-0.17,0.01-0.254,0.029
			c-0.516,0.117-0.881,0.576-0.881,1.105v13.566c0,0.312-0.254,0.568-0.566,0.568h-4.761c-0.312,0-0.567-0.256-0.567-0.568v-31.388
			c0-0.312,0.255-0.566,0.567-0.566h4.761c0.215,0,0.421,0.131,0.513,0.326l7.615,16.218c0.188,0.398,0.587,0.652,1.026,0.652
			c0.002,0,0.003,0,0.005,0c0.44-0.002,0.841-0.26,1.025-0.66l7.462-16.206c0.093-0.201,0.295-0.33,0.516-0.33h4.761
			c0.312,0,0.566,0.254,0.566,0.566v31.388c0,0.312-0.254,0.568-0.566,0.568H293.985z"/>
		<path d="M331.009,480.443c-5.09,0-8.533-1.289-11.513-4.312c-0.219-0.223-0.217-0.582,0.006-0.801l3.174-3.131
			c0.108-0.107,0.245-0.164,0.397-0.164c0.153,0,0.292,0.059,0.4,0.166c2.012,2.012,4.221,2.832,7.623,2.832
			c5.338,0,5.914-2.963,5.914-4.238c0-1.244-0.365-2.23-1.057-2.85c-0.711-0.668-1.388-0.924-3.13-1.174l-3.7-0.527
			c-2.626-0.363-4.789-1.283-6.263-2.662c-1.661-1.567-2.47-3.665-2.47-6.409c0-5.941,4.341-9.781,11.058-9.781
			c4.308,0,7.337,1.113,10.129,3.725c0.111,0.104,0.179,0.254,0.181,0.406s-0.062,0.305-0.169,0.41l-3.042,2.998
			c-0.109,0.109-0.246,0.164-0.398,0.164c-0.147,0-0.283-0.055-0.392-0.156c-1.642-1.568-3.628-2.268-6.44-2.268
			c-3.186,0-5.164,1.656-5.164,4.326c0,1.055,0.336,1.891,1,2.484c0.716,0.635,1.893,1.115,3.232,1.318l3.574,0.529
			c2.908,0.441,4.69,1.156,6.148,2.47c1.806,1.574,2.753,3.943,2.753,6.863C342.862,476.513,338.098,480.443,331.009,480.443z"/>
	</g>
</g>
</svg>
